<svg width="74" height="37" viewBox="0 0 74 37" fill="none" xmlns="http://www.w3.org/2000/svg">
<path d="M0 0H12.3333V12.3333H0V0Z" fill="url(#paint0_linear_0_27)"/>
<path d="M12.3333 0H24.6667V12.3333H12.3333V0Z" fill="url(#paint1_linear_0_27)"/>
<path d="M12.3333 12.3333H24.6667V24.6667H12.3333V12.3333Z" fill="url(#paint2_linear_0_27)"/>
<path d="M37 12.3333H49.3333V24.6667H37V12.3333Z" fill="url(#paint3_linear_0_27)"/>
<path d="M49.3333 0H61.6667V12.3333H49.3333V0Z" fill="url(#paint4_linear_0_27)"/>
<path d="M61.6667 0H74V12.3333H61.6667V0Z" fill="url(#paint5_linear_0_27)"/>
<path d="M37 24.6667H49.3333V37H37V24.6667Z" fill="url(#paint6_linear_0_27)"/>
<path d="M49.3333 24.6667H61.6667V37H49.3333V24.6667Z" fill="url(#paint7_linear_0_27)"/>
<path d="M61.6667 24.6667H74V37H61.6667V24.6667Z" fill="url(#paint8_linear_0_27)"/>
<path d="M12.3333 24.6667H24.6667V37H12.3333V24.6667Z" fill="url(#paint9_linear_0_27)"/>
<path d="M24.6667 0H37V12.3333H24.6667V0Z" fill="url(#paint10_linear_0_27)"/>
<defs>
<linearGradient id="paint0_linear_0_27" x1="37" y1="0" x2="37" y2="37" gradientUnits="userSpaceOnUse">
<stop stop-color="#52AB6F"/>
<stop offset="1" stop-color="#60CA4D"/>
</linearGradient>
<linearGradient id="paint1_linear_0_27" x1="37" y1="0" x2="37" y2="37" gradientUnits="userSpaceOnUse">
<stop stop-color="#52AB6F"/>
<stop offset="1" stop-color="#60CA4D"/>
</linearGradient>
<linearGradient id="paint2_linear_0_27" x1="37" y1="0" x2="37" y2="37" gradientUnits="userSpaceOnUse">
<stop stop-color="#52AB6F"/>
<stop offset="1" stop-color="#60CA4D"/>
</linearGradient>
<linearGradient id="paint3_linear_0_27" x1="37" y1="0" x2="37" y2="37" gradientUnits="userSpaceOnUse">
<stop stop-color="#52AB6F"/>
<stop offset="1" stop-color="#60CA4D"/>
</linearGradient>
<linearGradient id="paint4_linear_0_27" x1="37" y1="0" x2="37" y2="37" gradientUnits="userSpaceOnUse">
<stop stop-color="#52AB6F"/>
<stop offset="1" stop-color="#60CA4D"/>
</linearGradient>
<linearGradient id="paint5_linear_0_27" x1="37" y1="0" x2="37" y2="37" gradientUnits="userSpaceOnUse">
<stop stop-color="#52AB6F"/>
<stop offset="1" stop-color="#60CA4D"/>
</linearGradient>
<linearGradient id="paint6_linear_0_27" x1="37" y1="0" x2="37" y2="37" gradientUnits="userSpaceOnUse">
<stop stop-color="#52AB6F"/>
<stop offset="1" stop-color="#60CA4D"/>
</linearGradient>
<linearGradient id="paint7_linear_0_27" x1="37" y1="0" x2="37" y2="37" gradientUnits="userSpaceOnUse">
<stop stop-color="#52AB6F"/>
<stop offset="1" stop-color="#60CA4D"/>
</linearGradient>
<linearGradient id="paint8_linear_0_27" x1="37" y1="0" x2="37" y2="37" gradientUnits="userSpaceOnUse">
<stop stop-color="#52AB6F"/>
<stop offset="1" stop-color="#60CA4D"/>
</linearGradient>
<linearGradient id="paint9_linear_0_27" x1="37" y1="0" x2="37" y2="37" gradientUnits="userSpaceOnUse">
<stop stop-color="#52AB6F"/>
<stop offset="1" stop-color="#60CA4D"/>
</linearGradient>
<linearGradient id="paint10_linear_0_27" x1="37" y1="0" x2="37" y2="37" gradientUnits="userSpaceOnUse">
<stop stop-color="#52AB6F"/>
<stop offset="1" stop-color="#60CA4D"/>
</linearGradient>
</defs>
</svg>
